<?xml version="1.0" encoding="iso-8859-1"?>
<!-- Generator: Adobe Illustrator 19.0.0, SVG Export Plug-In . SVG Version: 6.00 Build 0)  -->
<svg version="1.1" id="Layer_1" xmlns="http://www.w3.org/2000/svg" xmlns:xlink="http://www.w3.org/1999/xlink" x="0px" y="0px"
	 viewBox="0 0 512 512" style="enable-background:new 0 0 512 512;" xml:space="preserve">
<polygon style="fill:#FFCE54;" points="427.001,80 389.001,43 328.001,18.664 256.001,13.164 167.001,22.25 97.001,69.336 
	66.001,126 86.11,195.984 134.001,239 203.001,230 252.001,172 282.001,208 323.001,234 359.001,238 421.001,208 446.001,160 
	446.001,111 "/>
<polygon style="fill:#434A54;" points="296.001,72.664 250.001,67 210.001,69.336 197.337,83.336 210.001,117.172 239.337,163.75 
	266.642,167.336 300.001,135.336 312.001,86.359 "/>
<polygon style="fill:#ED5564;" points="373.001,237 321.001,237 256.001,180 192.001,237 130.001,237 69.001,180 60.001,414 
	129.001,411 130.001,503 386.001,497 387.001,416 451.001,416 451.001,172 "/>
<path d="M255.97,298.672c-5.883,0-10.656,4.766-10.656,10.672c0,5.875,4.773,10.656,10.656,10.656
	c5.906,0,10.672-4.781,10.672-10.656C266.642,303.438,261.876,298.672,255.97,298.672z"/>
<path d="M255.97,362.672c-5.883,0-10.656,4.766-10.656,10.672c0,5.875,4.773,10.656,10.656,10.656
	c5.906,0,10.672-4.781,10.672-10.656C266.642,367.438,261.876,362.672,255.97,362.672z"/>
<path d="M255.97,426.672c-5.883,0-10.656,4.766-10.656,10.672c0,5.875,4.773,10.656,10.656,10.656
	c5.906,0,10.672-4.781,10.672-10.656C266.642,431.438,261.876,426.672,255.97,426.672z"/>
<path d="M458.673,139.836h-0.047c-0.031-11.664-2.047-23.406-6.031-34.859c-10.438-29.898-33.062-55.531-65.438-74.141
	C352.079,10.664,306.72,0,255.985,0c-50.742,0-96.109,10.664-131.195,30.844c-31.906,18.344-55.141,44.672-65.43,74.148
	c-4.18,11.977-6.188,24.273-6.023,36.461v285.219h63.945V512h277.391v-85.328h64L458.673,139.836L458.673,139.836z M79.501,112.016
	c8.602-24.625,28.461-46.891,55.922-62.68c31.859-18.32,73.547-28,120.562-28c47,0,88.688,9.68,120.547,27.992
	c27.453,15.789,47.312,38.047,55.906,62.68c12.391,35.453,0.844,71.672-30.859,96.891c-16.688,13.281-33.578,20.008-50.203,20.008
	c-0.016,0-0.016,0-0.016,0c-39.422,0-70.062-37.367-81.406-53.43c6.547-6.047,16.672-15.914,26.359-27.375
	c23.375-27.672,31.688-49.469,25.391-66.633c-3.422-9.312-10.906-16.344-22.281-20.883c-10.781-4.312-25-6.414-43.438-6.414
	c-18.453,0-32.672,2.102-43.477,6.414c-11.367,4.539-18.859,11.57-22.281,20.891c-6.289,17.164,2.016,38.953,25.406,66.625
	c9.695,11.469,19.844,21.344,26.391,27.391c-11.305,16.07-41.836,53.414-81.422,53.414c-16.633,0-33.531-6.727-50.219-20.016
	C78.673,183.688,67.126,147.469,79.501,112.016z M255.985,159.328c-6.148-5.703-15.484-14.836-24.219-25.188
	c-23.984-28.445-23.031-41.172-21.508-45.32c3.109-8.461,19.773-13.312,45.727-13.312c25.922,0,42.578,4.852,45.688,13.312
	c1.531,4.148,2.484,16.875-21.484,45.32C271.454,144.492,262.126,153.625,255.985,159.328z M74.673,405.344V202.656
	c6.242,8.336,13.766,16.039,22.43,22.93c6.648,5.297,13.383,9.734,20.18,13.336v166.422H74.673z M373.345,490.672H138.618v-64h0.055
	V247.367c7.266,1.914,14.586,2.875,21.93,2.875c45.805,0,79.875-36.914,95.383-57.617c15.5,20.703,49.578,57.609,95.375,57.617
	c0,0,0,0,0.016,0c7.344,0,14.688-0.969,21.969-2.883v179.312L373.345,490.672L373.345,490.672z M394.673,405.344V238.922
	c6.797-3.594,13.531-8.039,20.188-13.328c8.688-6.914,16.219-14.648,22.484-23.008v202.758H394.673z"/>
<g>
</g>
<g>
</g>
<g>
</g>
<g>
</g>
<g>
</g>
<g>
</g>
<g>
</g>
<g>
</g>
<g>
</g>
<g>
</g>
<g>
</g>
<g>
</g>
<g>
</g>
<g>
</g>
<g>
</g>
</svg>
