<?xml version="1.0" encoding="iso-8859-1"?>
<!-- Generator: Adobe Illustrator 19.0.0, SVG Export Plug-In . SVG Version: 6.00 Build 0)  -->
<svg version="1.1" id="Capa_1" xmlns="http://www.w3.org/2000/svg" xmlns:xlink="http://www.w3.org/1999/xlink" x="0px" y="0px"
	 viewBox="0 0 512.001 512.001" style="enable-background:new 0 0 512.001 512.001;" xml:space="preserve">
<rect x="57.948" y="353.261" style="fill:#ED6435;" width="396.11" height="74.37"/>
<rect x="57.948" y="427.631" style="fill:#F6A35D;" width="396.11" height="74.37"/>
<path d="M407.671,400.441c-0.65,0-1.31-0.06-1.96-0.19c-0.64-0.13-1.26-0.32-1.87-0.57c-0.6-0.25-1.18-0.56-1.72-0.92
	c-0.55-0.37-1.06-0.79-1.53-1.25c-1.86-1.86-2.92-4.43-2.92-7.07c0-0.65,0.06-1.31,0.19-1.95s0.32-1.27,0.57-1.87
	c0.25-0.61,0.56-1.19,0.92-1.73c0.37-0.55,0.78-1.06,1.24-1.52c0.47-0.46,0.98-0.88,1.53-1.24c0.54-0.36,1.12-0.67,1.72-0.92
	c0.61-0.25,1.23-0.44,1.87-0.57c3.25-0.66,6.7,0.41,9.03,2.73c0.46,0.46,0.88,0.97,1.24,1.52c0.36,0.54,0.67,1.12,0.92,1.73
	c0.25,0.6,0.44,1.23,0.57,1.87c0.13,0.64,0.2,1.3,0.2,1.95c0,2.64-1.07,5.21-2.93,7.07
	C412.881,399.381,410.301,400.441,407.671,400.441z"/>
<path d="M100.951,474.921c-0.65,0-1.31-0.06-1.96-0.19c-0.63-0.13-1.26-0.32-1.87-0.57c-0.6-0.25-1.18-0.56-1.72-0.92
	c-0.55-0.37-1.06-0.78-1.52-1.24s-0.88-0.98-1.25-1.52c-0.36-0.55-0.67-1.13-0.92-1.73s-0.44-1.23-0.57-1.87
	c-0.13-0.65-0.19-1.3-0.19-1.95c0-0.66,0.06-1.31,0.19-1.96c0.13-0.64,0.32-1.27,0.57-1.87s0.56-1.18,0.92-1.73
	c0.37-0.54,0.79-1.06,1.25-1.52c2.32-2.32,5.77-3.38,9.02-2.73c0.64,0.13,1.27,0.32,1.87,0.57c0.6,0.25,1.19,0.56,1.73,0.92
	c0.55,0.37,1.06,0.78,1.52,1.24s0.88,0.98,1.24,1.52c0.36,0.55,0.67,1.13,0.92,1.73s0.44,1.23,0.57,1.87c0.13,0.65,0.2,1.3,0.2,1.96
	c0,0.65-0.07,1.3-0.2,1.95c-0.13,0.64-0.32,1.27-0.57,1.87s-0.56,1.18-0.92,1.73c-0.36,0.54-0.78,1.06-1.24,1.52
	s-0.97,0.87-1.52,1.24c-0.54,0.36-1.13,0.67-1.73,0.92c-0.6,0.25-1.23,0.44-1.87,0.57
	C102.261,474.861,101.601,474.921,100.951,474.921z"/>
<path style="fill:#824946;" d="M335.202,101.351c-5.511,38.809-38.87,68.65-79.201,68.65s-73.691-29.849-79.202-68.657
	c-63.12,29.745-106.798,93.925-106.798,168.327v83.587h372v-83.587C442.001,195.269,398.322,131.096,335.202,101.351z"/>
<circle style="fill:#E24D4D;" cx="256.001" cy="90.001" r="80"/>
<path d="M454.054,343.258h-2.053v-73.587c0-37.896-10.835-74.668-31.335-106.34c-18.668-28.844-44.443-52.192-74.835-67.88
	c0.108-1.804,0.17-3.62,0.17-5.451c0-49.626-40.374-90-90-90s-90,40.374-90,90c0,1.828,0.061,3.642,0.169,5.443
	c-30.392,15.687-56.167,39.038-74.836,67.884c-20.498,31.675-31.333,68.447-31.333,106.344v73.586h-2.053c-5.523,0-10,4.477-10,10
	v74.372v74.372c0,5.523,4.477,10,10,10h396.105c5.523,0,10-4.477,10-10v-74.372v-74.372
	C464.054,347.735,459.577,343.258,454.054,343.258z M67.948,400.444h304.69c5.523,0,10-4.477,10-10s-4.477-10-10-10H67.948v-17.186
	h2.053h372h2.053v54.372H67.948V400.444z M256.001,20.001c38.598,0,70,31.402,70,70c0,3.546-0.27,7.03-0.781,10.436
	c-0.041,0.275-0.092,0.546-0.136,0.82c-0.14,0.864-0.29,1.725-0.462,2.579c-0.052,0.259-0.111,0.515-0.166,0.773
	c-0.183,0.857-0.377,1.709-0.591,2.554c-0.065,0.258-0.135,0.514-0.203,0.77c-0.22,0.83-0.454,1.655-0.704,2.473
	c-0.083,0.271-0.168,0.541-0.254,0.81c-0.25,0.783-0.514,1.56-0.79,2.331c-0.108,0.3-0.215,0.599-0.327,0.897
	c-0.267,0.714-0.549,1.421-0.839,2.123c-0.143,0.347-0.284,0.695-0.433,1.039c-0.264,0.612-0.543,1.216-0.824,1.82
	c-0.198,0.424-0.391,0.85-0.597,1.27c-0.223,0.454-0.46,0.9-0.692,1.349c-0.287,0.553-0.569,1.109-0.87,1.653
	c-0.09,0.162-0.187,0.32-0.278,0.482c-10.064,17.836-27.712,30.752-48.198,34.617c-0.13,0.024-0.261,0.046-0.391,0.07
	c-0.874,0.16-1.752,0.303-2.636,0.43c-0.322,0.045-0.646,0.082-0.969,0.123c-0.729,0.094-1.459,0.184-2.194,0.255
	c-0.551,0.052-1.108,0.087-1.663,0.127c-0.539,0.039-1.076,0.086-1.617,0.113c-1.12,0.054-2.249,0.086-3.385,0.086
	s-2.265-0.032-3.389-0.086c-0.542-0.027-1.078-0.074-1.617-0.113c-0.555-0.04-1.111-0.075-1.662-0.127
	c-0.736-0.071-1.468-0.161-2.198-0.256c-0.321-0.041-0.643-0.078-0.963-0.123c-0.887-0.127-1.768-0.271-2.645-0.432
	c-0.127-0.023-0.254-0.044-0.38-0.068c-20.58-3.883-38.301-16.898-48.343-34.863c-0.037-0.066-0.077-0.131-0.113-0.197
	c-0.336-0.606-0.652-1.226-0.971-1.844c-0.198-0.385-0.402-0.766-0.593-1.155c-0.231-0.469-0.447-0.945-0.668-1.42
	c-0.256-0.553-0.513-1.106-0.755-1.666c-0.167-0.385-0.324-0.774-0.484-1.163c-0.272-0.662-0.538-1.328-0.79-2
	c-0.125-0.332-0.244-0.666-0.364-1c-0.263-0.737-0.516-1.48-0.756-2.228c-0.096-0.299-0.189-0.598-0.281-0.898
	c-0.241-0.79-0.467-1.587-0.68-2.388c-0.074-0.28-0.15-0.559-0.221-0.84c-0.208-0.825-0.398-1.657-0.577-2.493
	c-0.058-0.274-0.121-0.547-0.176-0.822c-0.169-0.842-0.317-1.692-0.456-2.544c-0.046-0.282-0.098-0.561-0.14-0.844
	c-0.508-3.404-0.778-6.886-0.778-10.43C186.001,51.403,217.403,20.001,256.001,20.001z M80.001,269.671
	c0-63.615,34.89-122.56,89.871-153.505c0.053,0.174,0.113,0.344,0.167,0.517c0.064,0.207,0.134,0.413,0.2,0.619
	c0.344,1.08,0.709,2.153,1.093,3.218c0.071,0.195,0.14,0.391,0.212,0.586c0.228,0.618,0.462,1.233,0.703,1.846
	c0.008,0.021,0.017,0.043,0.026,0.064c5.232,13.251,13.583,25.195,24.484,34.734c5.479,4.795,11.485,8.851,17.857,12.152
	c0.39,0.203,0.783,0.402,1.177,0.599c0.68,0.34,1.363,0.674,2.051,0.996c0.703,0.33,1.411,0.652,2.123,0.964
	c0.313,0.137,0.624,0.278,0.938,0.411c1.025,0.436,2.062,0.848,3.106,1.246c0.189,0.072,0.378,0.146,0.568,0.216
	c1.135,0.424,2.281,0.825,3.438,1.204c0.087,0.029,0.174,0.057,0.261,0.085c4.998,1.622,10.186,2.819,15.522,3.545
	c0.024,0.003,0.049,0.007,0.073,0.01c1.268,0.172,2.545,0.316,3.829,0.434c0.12,0.011,0.239,0.021,0.359,0.032
	c1.233,0.108,2.472,0.195,3.719,0.253c0.141,0.007,0.282,0.01,0.423,0.016c1.26,0.055,2.526,0.088,3.8,0.088s2.54-0.033,3.801-0.086
	c0.141-0.006,0.282-0.01,0.423-0.016c1.246-0.058,2.484-0.144,3.716-0.252c0.122-0.011,0.243-0.021,0.364-0.033
	c1.282-0.118,2.556-0.262,3.822-0.433c0.028-0.004,0.056-0.008,0.084-0.012c5.323-0.725,10.498-1.918,15.485-3.534
	c0.108-0.035,0.216-0.07,0.324-0.105c1.134-0.372,2.259-0.765,3.372-1.181c0.219-0.081,0.436-0.166,0.654-0.249
	c1.014-0.388,2.022-0.788,3.018-1.211c0.355-0.15,0.706-0.309,1.06-0.464c0.645-0.284,1.286-0.575,1.924-0.874
	c0.775-0.362,1.544-0.737,2.309-1.121c0.314-0.158,0.627-0.316,0.938-0.478c6.406-3.309,12.444-7.38,17.95-12.197
	c11.447-10.016,20.083-22.684,25.246-36.734c0.04-0.108,0.078-0.216,0.117-0.324c0.543-1.494,1.059-2.999,1.522-4.523
	c54.981,30.945,89.871,89.888,89.871,153.497v73.586h-352V269.671z M67.948,492.001v-54.372h376.105v17.296H135.977
	c-5.523,0-10,4.477-10,10s4.477,10,10,10h308.077v17.076H67.948z"/>
<g>
</g>
<g>
</g>
<g>
</g>
<g>
</g>
<g>
</g>
<g>
</g>
<g>
</g>
<g>
</g>
<g>
</g>
<g>
</g>
<g>
</g>
<g>
</g>
<g>
</g>
<g>
</g>
<g>
</g>
</svg>
