<?xml version="1.0" encoding="iso-8859-1"?>
<!-- Generator: Adobe Illustrator 19.0.0, SVG Export Plug-In . SVG Version: 6.00 Build 0)  -->
<svg version="1.1" id="Capa_1" xmlns="http://www.w3.org/2000/svg" xmlns:xlink="http://www.w3.org/1999/xlink" x="0px" y="0px"
	 viewBox="0 0 512.001 512.001" style="enable-background:new 0 0 512.001 512.001;" xml:space="preserve">
<path style="fill:#EBECED;" d="M494.256,307.686c-9.904-0.048-17.855,8.477-17.922,18.381
	c-0.297,43.797-36.017,79.334-79.882,79.334l0,0c-6.172,0-11.176-5.004-11.176-11.176v-38.18h-50.89v38.18
	c0,6.172-5.004,11.176-11.176,11.176H175.103c-6.172,0-11.176-5.004-11.176-11.176v-42.156h-50.89v42.156
	c0,6.172-5.004,11.176-11.176,11.176H63.899c-15.594,0-28.234-12.641-28.234-28.234v-11.649c0-9.995-8.18-18.484-18.172-18.297
	C7.801,347.402,0,355.315,0,365.05v12.117c0,35.291,28.609,63.899,63.899,63.899h332.553c63.713,0,115.549-51.834,115.549-115.55
	C512,315.698,504.064,307.733,494.256,307.686z"/>
<g style="opacity:0.1;">
	<rect x="113.035" y="359.857" width="50.89" height="29.027"/>
	<rect x="334.384" y="363.836" width="50.89" height="25.051"/>
</g>
<path style="fill:#65CDEF;" d="M420.752,340.871v-28.145c0-17.974-10.271-34.367-26.443-42.208l-169.711-82.285V96.255
	c0-13.984-11.336-25.32-25.32-25.32h-23.281c-5.768,0-10.444,4.676-10.444,10.444v62.405c0,10.455-8.476,18.932-18.932,18.932
	h-25.698c-9.274,0-16.793-7.519-16.793-16.793v-19.484c0-7.45-6.039-13.488-13.488-13.488H68.21
	c-5.768,0-10.444,4.676-10.444,10.444v44.629v145.587c0,13.572,5.391,26.589,14.989,36.186l0,0
	c9.597,9.597,22.613,14.989,36.186,14.989h50.959h236.938C410.046,364.784,420.752,354.078,420.752,340.871z"/>
<g>
	<path style="fill:#48C2E0;" d="M258.922,204.874c0,0-14.088,7.384-21.73,25.036c-3.921,9.058,2.631,19.18,12.501,19.18h3.956
		c5.49,0,10.387-3.34,12.517-8.401c3.679-8.736,11.565-20.948,26.587-19.412L258.922,204.874z"/>
	<path style="fill:#48C2E0;" d="M355.437,251.368c-15.024-1.536-22.908,10.676-26.587,19.412c-2.131,5.06-7.027,8.401-12.517,8.401
		h-3.962c-9.703,0-16.442-9.887-12.65-18.819c7.604-17.913,21.884-25.398,21.884-25.398L355.437,251.368z"/>
	<path style="fill:#48C2E0;" d="M225.005,138.036V96.255c0-13.984-11.336-25.32-25.32-25.32h-1.215v61.698
		c0,2.985,2.42,5.404,5.404,5.404H225.005z"/>
</g>
<path style="fill:#B57049;" d="M123.063,317.261c-7.667,0-13.882-6.215-13.882-13.882l0,0c0-3.408-2.762-6.169-6.169-6.169H57.767
	v16.702c0,13.573,5.391,26.588,14.989,36.186l0,0c9.597,9.597,22.613,14.989,36.186,14.989h50.959h236.938
	c13.206,0,23.912-10.706,23.912-23.912v-23.912H123.063V317.261z"/>
<g style="opacity:0.1;">
	<path d="M394.7,270.518l-169.711-82.285V96.255c0-13.983-11.336-25.32-25.32-25.32h-23.281c-2.579,0-4.673,0.577-6.806,2.203
		c8.786,3.972,15.258,12.848,15.258,23.118v91.978l169.711,82.285c16.172,7.841,26.443,24.234,26.443,42.208v28.144
		c0,13.206-10.706,23.912-23.912,23.912h40.15c13.206,0,23.912-10.706,23.912-23.912v-28.144
		C421.143,294.752,410.872,278.359,394.7,270.518z"/>
</g>
<g>
</g>
<g>
</g>
<g>
</g>
<g>
</g>
<g>
</g>
<g>
</g>
<g>
</g>
<g>
</g>
<g>
</g>
<g>
</g>
<g>
</g>
<g>
</g>
<g>
</g>
<g>
</g>
<g>
</g>
</svg>
